<svg xmlns="http://www.w3.org/2000/svg" viewBox="0 0 97.1 101.85"><defs><style>.cls-1{fill:#9fc749;}.cls-2{fill:#fff;}</style></defs><g id="Layer_2" data-name="Layer 2"><g id="OBJECTS"><path class="cls-1" d="M25.92,94A9.09,9.09,0,0,1,19,82.16l6.53-23.45a14.4,14.4,0,0,1-12.27-9.43L8.8,37.14a2.15,2.15,0,0,1,1.27-2.75l.18-.06a2.14,2.14,0,0,1,2.57,1.33L17.28,47.8a10.16,10.16,0,0,0,9.43,6.69L35.88,21.6,3.63,29.78A4.81,4.81,0,0,0,0,35L7.8,96.29a5,5,0,0,0,6.2,4.28l20-5.06Z"/><path class="cls-1" d="M69.82,21.79,62,20.34l1.45-7.8a5.28,5.28,0,0,1,6.15-4.22l7.79,1.45L76,17.56A5.28,5.28,0,0,1,69.82,21.79Z"/><path class="cls-1" d="M88.91,16.17l-7.79-1.45,1.45-7.8A5.27,5.27,0,0,1,88.71,2.7l7.8,1.45-1.45,7.79A5.27,5.27,0,0,1,88.91,16.17Z"/><path class="cls-1" d="M54.54,9.11l-5.43-1,1-5.43A3.25,3.25,0,0,1,53.92.06l5.43,1-1,5.43A3.25,3.25,0,0,1,54.54,9.11Z"/><path class="cls-1" d="M97.1,35.09a4.82,4.82,0,0,0-3.91-4.87L47.3,21.43a4.68,4.68,0,0,0-.91-.09,4.82,4.82,0,0,0-4.55,3.27L22.9,83.44A5,5,0,0,0,26.7,90l61.67,11.81a5.17,5.17,0,0,0,.95.09,5,5,0,0,0,5-4.84Z"/><path class="cls-2" d="M48.17,34.44,46.75,47.3a14.43,14.43,0,0,0,11.5,15.78l7.65,1.57.18,0A14.57,14.57,0,0,0,82.77,54.36L86.3,41.75a2.13,2.13,0,0,0-1.48-2.63l-.18,0a2.15,2.15,0,0,0-2.46,1.53L78.65,53.21a10.24,10.24,0,0,1-11.74,7.28l-.15,0-7.65-1.57A10.17,10.17,0,0,1,51,47.77l1.42-12.86a2.13,2.13,0,0,0-1.71-2.34l-.18,0A2.14,2.14,0,0,0,48.17,34.44Z"/></g></g></svg>